<svg width="223" height="20" viewBox="0 0 223 20" fill="none" xmlns="http://www.w3.org/2000/svg">
<path d="M0 10C0 6.13401 3.13401 3 7 3H216C219.866 3 223 6.13401 223 10V10C223 13.866 219.866 17 216 17H7C3.13401 17 0 13.866 0 10V10Z" fill="#F4F4F4"/>
<path d="M0 10C0 6.13401 3.13401 3 7 3H101C104.866 3 108 6.13401 108 10V10C108 13.866 104.866 17 101 17H7C3.13401 17 0 13.866 0 10V10Z" fill="#B85EFF" fill-opacity="0.34"/>
<path d="M88 10C88 4.47715 92.4772 0 98 0V0C103.523 0 108 4.47715 108 10V10C108 15.5228 103.523 20 98 20V20C92.4772 20 88 15.5228 88 10V10Z" fill="#B85EFF"/>
</svg>
