<svg width="223" height="20" viewBox="0 0 223 20" fill="none" xmlns="http://www.w3.org/2000/svg">
<path d="M0 10C0 6.13401 3.13401 3 7 3H216C219.866 3 223 6.13401 223 10V10C223 13.866 219.866 17 216 17H7C3.13401 17 0 13.866 0 10V10Z" fill="#F4F4F4"/>
<path d="M0 10C0 6.13401 3.13401 3 7 3H13C16.866 3 20 6.13401 20 10V10C20 13.866 16.866 17 13 17H7C3.13401 17 0 13.866 0 10V10Z" fill="#B85EFF" fill-opacity="0.34"/>
<path d="M0 10C0 4.47715 4.47715 0 10 0V0C15.5228 0 20 4.47715 20 10V10C20 15.5228 15.5228 20 10 20V20C4.47715 20 0 15.5228 0 10V10Z" fill="#B85EFF"/>
</svg>
